<?xml version="1.0" encoding="UTF-8"?>
<svg version="1.1" xmlns="http://www.w3.org/2000/svg" width="100" height="100">
<path d="M0 0 C6.74675177 1.12445863 6.74675177 1.12445863 9.4453125 3.40625 C10.04166504 3.89867187 10.63801758 4.39109375 11.25244141 4.8984375 C11.87038574 5.42695313 12.48833008 5.95546875 13.125 6.5 C14.44663274 7.59530109 15.76956695 8.68903353 17.09375 9.78125 C17.74859375 10.32523438 18.4034375 10.86921875 19.078125 11.4296875 C22.75932714 14.437499 26.59239573 17.23639348 30.4140625 20.0625 C32.98694141 21.99021592 35.50031253 23.97859208 38 26 C37.65612014 28.81981486 37.41296041 30.54639024 35.47216797 32.67822266 C34.81877441 33.1685498 34.16538086 33.65887695 33.4921875 34.1640625 C32.7595166 34.72399902 32.0268457 35.28393555 31.27197266 35.86083984 C30.48097168 36.4430127 29.6899707 37.02518555 28.875 37.625 C28.06981934 38.23166504 27.26463867 38.83833008 26.43505859 39.46337891 C24.77566781 40.71012559 23.1117205 41.95082981 21.44335938 43.18554688 C19.14875566 44.88953317 16.87650975 46.61909499 14.609375 48.359375 C13.28202046 49.36560049 11.95393549 50.37086342 10.625 51.375 C9.70823486 52.08003662 9.70823486 52.08003662 8.77294922 52.79931641 C5.46853417 55.2513394 4.25645112 56 0 56 C0 50.06 0 44.12 0 38 C-15.18 38 -30.36 38 -46 38 C-46 31.4 -46 24.8 -46 18 C-30.82 18 -15.64 18 0 18 C0 12.06 0 6.12 0 0 Z " fill="#FFFFFF" transform="translate(54,22)"/>
</svg>
