<?xml version="1.0" encoding="UTF-8"?>
<svg version="1.1" xmlns="http://www.w3.org/2000/svg" width="100" height="100">
<path d="M0 0 C0 5.94 0 11.88 0 18 C15.18 18 30.36 18 46 18 C46 24.6 46 31.2 46 38 C30.82 38 15.64 38 0 38 C0 43.94 0 49.88 0 56 C-6.74675177 54.87554137 -6.74675177 54.87554137 -9.4453125 52.59375 C-10.04166504 52.10132813 -10.63801758 51.60890625 -11.25244141 51.1015625 C-11.87038574 50.57304688 -12.48833008 50.04453125 -13.125 49.5 C-14.44663274 48.40469891 -15.76956695 47.31096647 -17.09375 46.21875 C-17.74859375 45.67476562 -18.4034375 45.13078125 -19.078125 44.5703125 C-22.75932714 41.562501 -26.59239573 38.76360652 -30.4140625 35.9375 C-32.98694141 34.00978408 -35.50031253 32.02140792 -38 30 C-37.65612014 27.18018514 -37.41296041 25.45360976 -35.47216797 23.32177734 C-34.81877441 22.8314502 -34.16538086 22.34112305 -33.4921875 21.8359375 C-32.39318115 20.99603271 -32.39318115 20.99603271 -31.27197266 20.13916016 C-30.48097168 19.5569873 -29.6899707 18.97481445 -28.875 18.375 C-28.06981934 17.76833496 -27.26463867 17.16166992 -26.43505859 16.53662109 C-24.77566781 15.28987441 -23.1117205 14.04917019 -21.44335938 12.81445312 C-19.14875566 11.11046683 -16.87650975 9.38090501 -14.609375 7.640625 C-13.28202046 6.63439951 -11.95393549 5.62913658 -10.625 4.625 C-10.01382324 4.15497559 -9.40264648 3.68495117 -8.77294922 3.20068359 C-5.46853417 0.7486606 -4.25645112 0 0 0 Z " fill="#FFFFFF" transform="translate(46,22)"/>
</svg>
