<?xml version="1.0" encoding="UTF-8"?>
<svg version="1.1" xmlns="http://www.w3.org/2000/svg" width="48" height="48">
<path d="M0 0 C1.98 0 3.96 0 6 0 C6 1.32 6 2.64 6 4 C6.7425 4.226875 7.485 4.45375 8.25 4.6875 C11.71113614 6.33940588 12.95066456 7.74770035 15 11 C15.53698687 13.87507229 15.56000918 16.70575811 15.5625 19.625 C15.32175985 25.09603235 15.32175985 25.09603235 17.52734375 29.8359375 C18.25630859 30.41214844 18.25630859 30.41214844 19 31 C19 31.99 19 32.98 19 34 C8.44 34 -2.12 34 -13 34 C-12 30 -12 30 -10 28 C-9.77349864 24.47994602 -9.68214601 20.99854946 -9.69726562 17.47265625 C-9.53971459 11.64835034 -8.21178242 9.06000648 -4 5 C-1.6875 4.125 -1.6875 4.125 0 4 C0 2.68 0 1.36 0 0 Z " fill="#FFFFFF" transform="translate(21,4)"/>
<path d="M0 0 C2.64 0 5.28 0 8 0 C7.67 1.32 7.34 2.64 7 4 C5.02 4 3.04 4 1 4 C0.67 2.68 0.34 1.36 0 0 Z " fill="#FFFFFF" transform="translate(20,40)"/>
</svg>
