<?xml version="1.0" encoding="UTF-8"?>
<svg version="1.1" xmlns="http://www.w3.org/2000/svg" width="96" height="96">
<path d="M0 0 C1.91015625 0.23046875 1.91015625 0.23046875 3.91015625 2.23046875 C3.95140625 3.17921875 3.99265625 4.12796875 4.03515625 5.10546875 C4.53656063 8.24497327 4.53656063 8.24497327 6.50390625 9.23046875 C7.90470783 9.83389097 9.30576517 10.43671971 10.70703125 11.0390625 C16.21509049 14.01771156 19.99008392 19.37142078 21.91015625 25.23046875 C22.11791992 28.53271484 22.11791992 28.53271484 22.078125 32.25390625 C22.08380278 33.61849656 22.0910121 34.98308121 22.09960938 36.34765625 C22.10377711 38.47663284 22.09768401 40.60367738 22.06469727 42.73242188 C21.67558708 51.05992072 21.67558708 51.05992072 24.52197266 58.59082031 C26.38980133 60.41096145 26.38980133 60.41096145 28.4074707 61.76025391 C28.90335693 62.2454248 29.39924316 62.7305957 29.91015625 63.23046875 C29.91015625 64.88046875 29.91015625 66.53046875 29.91015625 68.23046875 C21.99015625 68.23046875 14.07015625 68.23046875 5.91015625 68.23046875 C5.91015625 70.87046875 5.91015625 73.51046875 5.91015625 76.23046875 C4.41015625 78.73046875 4.41015625 78.73046875 1.91015625 80.23046875 C-2.11082652 81.02148175 -5.05395402 80.85200259 -8.58984375 78.73046875 C-10.08984375 76.23046875 -10.08984375 76.23046875 -10.08984375 68.23046875 C-18.00984375 68.23046875 -25.92984375 68.23046875 -34.08984375 68.23046875 C-34.08984375 66.58046875 -34.08984375 64.93046875 -34.08984375 63.23046875 C-32.58276367 61.75366211 -32.58276367 61.75366211 -30.6328125 60.3828125 C-26.85053202 56.86328294 -26.5330053 54.14044494 -26.328125 49.046875 C-26.29796249 46.29330166 -26.33942308 43.54582812 -26.40234375 40.79296875 C-26.68154227 22.47029966 -26.68154227 22.47029966 -20.125 14.98828125 C-19.47402344 14.44945312 -18.82304687 13.910625 -18.15234375 13.35546875 C-17.46011719 12.78054687 -16.76789062 12.205625 -16.0546875 11.61328125 C-14.08984375 10.23046875 -14.08984375 10.23046875 -11.21484375 9.23046875 C-10.51359375 8.90046875 -9.81234375 8.57046875 -9.08984375 8.23046875 C-7.77982879 4.72942343 -7.77982879 4.72942343 -7.08984375 1.23046875 C-5.19495423 -0.66442077 -2.51845229 0.05027763 0 0 Z M-13.08984375 21.23046875 C-17.65601829 27.03074452 -18.22048829 31.61931342 -18.1875 38.84375 C-18.18500244 39.96821533 -18.18250488 41.09268066 -18.17993164 42.2512207 C-18.17082764 43.66749756 -18.16172363 45.08377441 -18.15234375 46.54296875 C-18.13171875 51.05984375 -18.11109375 55.57671875 -18.08984375 60.23046875 C-7.52984375 60.23046875 3.03015625 60.23046875 13.91015625 60.23046875 C13.97203125 55.79609375 14.03390625 51.36171875 14.09765625 46.79296875 C14.12496826 45.41310791 14.15228027 44.03324707 14.18041992 42.61157227 C14.40070965 31.36161887 14.40070965 31.36161887 9.45751953 21.61938477 C4.72951875 17.54028309 1.50904999 16.87453929 -4.55078125 16.953125 C-8.31444777 17.36423319 -10.30774562 18.71333235 -13.08984375 21.23046875 Z " fill="#FFFFFF" transform="translate(50.08984375,7.76953125)"/>
</svg>
