<?xml version="1.0" encoding="UTF-8"?>
<svg version="1.1" xmlns="http://www.w3.org/2000/svg" width="50" height="50">
<path d="M0 0 C13.2 0 26.4 0 40 0 C39.35586932 7.72956814 38.65322552 15.33695406 37.5625 23 C37.44068359 23.91394531 37.31886719 24.82789062 37.19335938 25.76953125 C37.06896484 26.64996094 36.94457031 27.53039062 36.81640625 28.4375 C36.70756104 29.21996094 36.59871582 30.00242187 36.48657227 30.80859375 C36 33 36 33 34 37 C24.76 37 15.52 37 6 37 C4.10466291 33.20932582 3.50818675 30.78530092 2.9296875 26.66015625 C2.66865234 24.8184082 2.66865234 24.8184082 2.40234375 22.93945312 C2.22832031 21.66005859 2.05429688 20.38066406 1.875 19.0625 C1.69324219 17.78697266 1.51148438 16.51144531 1.32421875 15.19726562 C0.60703067 10.05562027 0 5.2026078 0 0 Z M7 4 C7 5.65 7 7.3 7 9 C7.33 9 7.66 9 8 9 C8 7.35 8 5.7 8 4 C7.67 4 7.34 4 7 4 Z M15 4 C16 8 16 8 16 8 Z M24 4 C25 8 25 8 25 8 Z M32 4 C32 5.65 32 7.3 32 9 C32.33 9 32.66 9 33 9 C33 7.35 33 5.7 33 4 C32.67 4 32.34 4 32 4 Z M8 9 C8 11.31 8 13.62 8 16 C8.33 16 8.66 16 9 16 C9 13.69 9 11.38 9 9 C8.67 9 8.34 9 8 9 Z M16 9 C16 15.6 16 22.2 16 29 C16.33 29 16.66 29 17 29 C17 22.4 17 15.8 17 9 C16.67 9 16.34 9 16 9 Z M23 9 C23 15.6 23 22.2 23 29 C23.33 29 23.66 29 24 29 C24 22.4 24 15.8 24 9 C23.67 9 23.34 9 23 9 Z M31 9 C31 11.31 31 13.62 31 16 C31.33 16 31.66 16 32 16 C32 13.69 32 11.38 32 9 C31.67 9 31.34 9 31 9 Z M9 17 C9 19.31 9 21.62 9 24 C9.33 24 9.66 24 10 24 C10 21.69 10 19.38 10 17 C9.67 17 9.34 17 9 17 Z M30 17 C30 19.31 30 21.62 30 24 C30.33 24 30.66 24 31 24 C31 21.69 31 19.38 31 17 C30.67 17 30.34 17 30 17 Z M10 24 C10 25.65 10 27.3 10 29 C10.33 29 10.66 29 11 29 C11 27.35 11 25.7 11 24 C10.67 24 10.34 24 10 24 Z M29 24 C29 25.65 29 27.3 29 29 C29.33 29 29.66 29 30 29 C30 27.35 30 25.7 30 24 C29.67 24 29.34 24 29 24 Z " fill="#FFFFFF" transform="translate(5,13)"/>
<path d="M0 0 C4.62 0 9.24 0 14 0 C14 1.32 14 2.64 14 4 C17.63 4 21.26 4 25 4 C25 4.66 25 5.32 25 6 C26.32 6.33 27.64 6.66 29 7 C29 8.32 29 9.64 29 11 C14.48 11 -0.04 11 -15 11 C-14.67 9.35 -14.34 7.7 -14 6 C-13.01 6 -12.02 6 -11 6 C-11 5.34 -11 4.68 -11 4 C-7.37 4 -3.74 4 0 4 C0 2.68 0 1.36 0 0 Z M3 2 C2.67 2.66 2.34 3.32 2 4 C5.3 4 8.6 4 12 4 C11.67 3.34 11.34 2.68 11 2 C8.36 2 5.72 2 3 2 Z " fill="#FFFFFF" transform="translate(18,0)"/>
</svg>
