<?xml version="1.0" encoding="UTF-8"?>
<svg version="1.1" xmlns="http://www.w3.org/2000/svg" width="100" height="100">
<path d="M0 0 C1.40747634 -0.02156865 2.81481892 -0.05566004 4.22167969 -0.10253906 C15.88548633 -0.48745153 15.88548633 -0.48745153 19.37036133 1.70141602 C21.18996657 3.81092664 22.30639648 5.5699723 22.30639648 8.4050293 C22.97695068 8.37884521 23.64750488 8.35266113 24.33837891 8.32568359 C27.38997776 8.22145691 30.44120191 8.15662306 33.49389648 8.0925293 C34.54899414 8.05063477 35.6040918 8.00874023 36.69116211 7.96557617 C37.71274414 7.94946289 38.73432617 7.93334961 39.78686523 7.91674805 C40.72425537 7.89056396 41.66164551 7.86437988 42.62744141 7.83740234 C46.74965197 8.71083163 47.94712793 9.87989346 50.30639648 13.4050293 C51.05436779 17.73656945 51.00663758 22.01838415 50.97045898 26.4050293 C50.97524261 27.6734668 50.98002625 28.9419043 50.98495483 30.2487793 C50.98835583 32.92933754 50.98166927 35.60761072 50.95825195 38.2878418 C50.9297619 41.71478784 50.9461735 45.13977611 50.97611427 48.56665039 C50.99857693 51.84617923 50.9828271 55.12547486 50.97045898 58.4050293 C50.98564072 60.24581055 50.98564072 60.24581055 51.00112915 62.1237793 C50.98536835 63.2684668 50.96960754 64.4131543 50.95336914 65.5925293 C50.94740219 67.09879883 50.94740219 67.09879883 50.9413147 68.63549805 C50.0336766 72.59464115 48.57188586 74.02209017 45.30639648 76.4050293 C42.3199067 76.89978914 39.90497973 77.09077098 36.92358398 77.05200195 C36.09207825 77.06076355 35.26057251 77.06952515 34.40386963 77.07855225 C31.66251029 77.10051168 28.92277146 77.08600641 26.18139648 77.0690918 C24.27237642 77.07246094 22.36335844 77.07731438 20.4543457 77.08358765 C16.45625354 77.09095428 12.45872046 77.08026024 8.46069336 77.05688477 C3.33901468 77.02839708 -1.78135399 77.04480218 -6.90298462 77.07474709 C-10.84417571 77.09282574 -14.78505684 77.08705943 -18.72625732 77.07410812 C-20.61448319 77.07077568 -22.50273731 77.07485551 -24.39093018 77.08650589 C-27.03164057 77.09922414 -29.67023782 77.07982553 -32.31079102 77.05200195 C-33.08912292 77.06212311 -33.86745483 77.07224426 -34.66937256 77.08267212 C-38.54519228 77.00711797 -40.51754992 76.53350162 -43.67709351 74.22787476 C-45.97361423 71.01305158 -46.32509763 69.49986147 -46.34057617 65.5925293 C-46.35633698 64.4478418 -46.37209778 63.3031543 -46.38833618 62.1237793 C-46.37821503 60.8965918 -46.36809387 59.6694043 -46.35766602 58.4050293 C-46.36244965 57.1365918 -46.36723328 55.8681543 -46.37216187 54.5612793 C-46.37556286 51.88072105 -46.3688763 49.20244787 -46.34545898 46.5222168 C-46.31696893 43.09527075 -46.33338053 39.67028249 -46.3633213 36.2434082 C-46.38578396 32.96387937 -46.37003413 29.68458373 -46.35766602 26.4050293 C-46.36778717 25.1778418 -46.37790833 23.9506543 -46.38833618 22.6862793 C-46.27232954 14.26086123 -46.27232954 14.26086123 -43.47460938 10.12353516 C-40.47483896 8.26984505 -39.01903982 7.81888273 -35.53344727 7.90893555 C-34.09582031 7.90603516 -34.09582031 7.90603516 -32.62915039 7.90307617 C-30.62646045 7.94613074 -28.62384938 7.99302113 -26.62133789 8.04370117 C-23.86859896 8.03443269 -21.38416118 7.99399858 -18.69360352 7.4050293 C-16.05147098 4.59902841 -16.05147098 4.59902841 -14.69360352 1.4050293 C-10.3990396 -0.74225266 -4.76433694 0.05488995 0 0 Z M-29.69360352 19.4050293 C-30.02360352 21.0550293 -30.35360352 22.7050293 -30.69360352 24.4050293 C-28.21860352 24.9000293 -28.21860352 24.9000293 -25.69360352 25.4050293 C-25.36360352 23.7550293 -25.03360352 22.1050293 -24.69360352 20.4050293 C-26.34360352 20.0750293 -27.99360352 19.7450293 -29.69360352 19.4050293 Z M-13.47875977 27.34643555 C-18.77216932 34.14152157 -19.44097475 39.88066464 -18.69360352 48.4050293 C-16.94691425 55.11365114 -12.51628453 58.9496806 -6.69360352 62.4050293 C-0.61816785 64.43017452 6.75875179 64.50549418 12.68139648 61.9050293 C17.82477985 58.9091964 21.44178093 53.99887595 23.30639648 48.4050293 C23.96746601 41.08991567 24.07479356 34.33580571 19.30639648 28.4050293 C12.96437328 22.57343049 7.95078075 21.02178053 -0.61938477 21.13549805 C-6.08630786 21.61480897 -9.75930181 23.30142329 -13.47875977 27.34643555 Z " fill="#FFFFFF" transform="translate(47.693603515625,9.594970703125)"/>
<path d="M0 0 C4.8404001 2.60960701 8.06650639 6.09014417 9.796875 11.28125 C10.46163179 18.73524418 10.44121145 24.25616487 5.796875 30.28125 C0.39692227 35.28608423 -4.05234248 35.63143872 -11.1875 35.5625 C-16.73027207 35.04555753 -19.78938645 32.80659949 -23.578125 28.71875 C-27.13749657 23.37969265 -26.78151279 17.4828524 -26.203125 11.28125 C-24.60392 6.37933903 -21.45575292 3.11633528 -17.203125 0.28125 C-11.84906913 -1.50343529 -5.40672306 -1.76389547 0 0 Z " fill="#FFFFFF" transform="translate(58.203125,34.71875)"/>
</svg>
