<?xml version="1.0" encoding="UTF-8"?>
<svg version="1.1" xmlns="http://www.w3.org/2000/svg" width="48" height="48">
<path d="M0 0 C2.43930351 0.37609978 3.68820274 0.65477603 5.36865234 2.51538086 C5.77035645 3.15870361 6.17206055 3.80202637 6.5859375 4.46484375 C7.03936523 5.17809814 7.49279297 5.89135254 7.95996094 6.6262207 C8.42692383 7.38894287 8.89388672 8.15166504 9.375 8.9375 C9.85743164 9.70860107 10.33986328 10.47970215 10.83691406 11.27416992 C11.79523074 12.81008668 12.74847397 14.34918213 13.69628906 15.89160156 C14.80204391 17.67985978 15.94054476 19.44780485 17.0859375 21.2109375 C17.63507812 22.06945312 18.18421875 22.92796875 18.75 23.8125 C19.21921875 24.54082031 19.6884375 25.26914062 20.171875 26.01953125 C21 28 21 28 20 32 C7.79 32 -4.42 32 -17 32 C-18 28 -18 28 -17.21484375 26.05224609 C-16.79332031 25.38273926 -16.37179688 24.71323242 -15.9375 24.0234375 C-15.4731958 23.27433105 -15.0088916 22.52522461 -14.53051758 21.75341797 C-14.02544678 20.96854004 -13.52037598 20.18366211 -13 19.375 C-12.49686279 18.57336426 -11.99372559 17.77172852 -11.4753418 16.94580078 C-7.82629366 11.17247074 -4.04994454 5.50128986 0 0 Z " fill="#6EFF66" transform="translate(24,8)"/>
</svg>
