<?xml version="1.0" encoding="UTF-8"?>
<svg version="1.1" xmlns="http://www.w3.org/2000/svg" width="48" height="48">
<path d="M0 0 C1.56047445 0.00015913 3.12095416 0.00585397 4.68139648 0.01586914 C5.91115456 0.01799156 5.91115456 0.01799156 7.16575623 0.02015686 C9.79470406 0.0257725 12.42356797 0.0383276 15.05249023 0.05102539 C16.8304838 0.05603838 18.60847869 0.06060163 20.38647461 0.06469727 C24.75434569 0.07574701 29.12215371 0.09302208 33.48999023 0.11352539 C34.34685097 2.49982932 34.66914768 3.66908568 33.70483398 6.0612793 C33.28331055 6.73078613 32.86178711 7.40029297 32.42749023 8.09008789 C31.96318604 8.83919434 31.49888184 9.58830078 31.02050781 10.36010742 C30.51543701 11.14498535 30.01036621 11.92986328 29.48999023 12.73852539 C28.73528442 13.940979 28.73528442 13.940979 27.96533203 15.16772461 C24.3162839 20.94105465 20.53993478 26.61223553 16.48999023 32.11352539 C14.73095703 31.95043945 14.73095703 31.95043945 12.48999023 31.11352539 C10.58300781 28.78442383 10.58300781 28.78442383 8.63452148 25.72290039 C7.93004883 24.62075195 7.22557617 23.51860352 6.49975586 22.38305664 C6.13922119 21.80507324 5.77868652 21.22708984 5.40722656 20.6315918 C4.30956542 18.87484881 3.19161659 17.13243426 2.07006836 15.39086914 C-4.04397331 5.72764597 -4.04397331 5.72764597 -4.51000977 1.11352539 C-3.51000977 0.11352539 -3.51000977 0.11352539 0 0 Z " fill="#D56767" transform="translate(10.510009765625,7.886474609375)"/>
</svg>
