<?xml version="1.0" encoding="UTF-8"?>
<svg version="1.1" xmlns="http://www.w3.org/2000/svg" width="64" height="64">
<path d="M0 0 C7.76675969 5.2863574 13.38019908 11.09474305 15.95703125 20.33203125 C16.97849667 31.79382348 16.07180915 40.5604769 8.58203125 49.64453125 C3.05238769 55.57504449 -2.65763398 58.94121385 -10.8125 59.66796875 C-22.2900419 59.92562211 -29.79553736 58.0735478 -38.3203125 50.125 C-45.07902557 43.09042109 -46.45687681 35.78457741 -46.40649414 26.37695312 C-46.15072802 16.47368908 -42.06373178 10.07747024 -35.04296875 3.33203125 C-25.66852822 -3.93794304 -10.69212687 -5.78560593 0 0 Z " fill="#E04F5F" transform="translate(47.04296875,3.66796875)"/>
<path d="M0 0 C3.85103301 0.53675903 5.31797587 2.11600923 7.75 5.0625 C8.36359375 5.79597656 8.9771875 6.52945312 9.609375 7.28515625 C10.06828125 7.85105469 10.5271875 8.41695312 11 9 C14.21043882 7.61811547 16.04936365 6.07578097 18.25 3.375 C18.77078125 2.74335938 19.2915625 2.11171875 19.828125 1.4609375 C20.21484375 0.97882812 20.6015625 0.49671875 21 0 C22.32 0.33 23.64 0.66 25 1 C24.48118887 5.1724106 23.28848726 7.25416821 20.4375 10.3125 C19.79683594 11.00988281 19.15617187 11.70726562 18.49609375 12.42578125 C18.00238281 12.94527344 17.50867188 13.46476562 17 14 C18.35011767 17.00977451 19.89605885 19.08074461 22.1875 21.4375 C25.01635405 24.61567985 25.01635405 24.61567985 24.875 27.9375 C24.441875 28.9584375 24.441875 28.9584375 24 30 C20.14896699 29.46324097 18.68202413 27.88399077 16.25 24.9375 C15.63640625 24.20402344 15.0228125 23.47054687 14.390625 22.71484375 C13.93171875 22.14894531 13.4728125 21.58304688 13 21 C9.78956118 22.38188453 7.95063635 23.92421903 5.75 26.625 C4.96882813 27.57246094 4.96882813 27.57246094 4.171875 28.5390625 C3.78515625 29.02117188 3.3984375 29.50328125 3 30 C1.68 29.67 0.36 29.34 -1 29 C-0.48118887 24.8275894 0.71151274 22.74583179 3.5625 19.6875 C4.20316406 18.99011719 4.84382813 18.29273437 5.50390625 17.57421875 C6.24447266 16.79498047 6.24447266 16.79498047 7 16 C5.64988233 12.99022549 4.10394115 10.91925539 1.8125 8.5625 C-1.01635405 5.38432015 -1.01635405 5.38432015 -0.875 2.0625 C-0.58625 1.381875 -0.2975 0.70125 0 0 Z " fill="#FDF7F7" transform="translate(20,17)"/>
</svg>
