<?xml version="1.0" encoding="UTF-8"?>
<svg version="1.1" xmlns="http://www.w3.org/2000/svg" width="100" height="100">
<path d="M0 0 C1.15628906 0.00607269 1.15628906 0.00607269 2.3359375 0.01226807 C3.12742187 0.01035461 3.91890625 0.00844116 4.734375 0.00646973 C6.4088574 0.00510789 8.08335035 0.00880425 9.7578125 0.01715088 C12.32576131 0.02785067 14.89301053 0.01725582 17.4609375 0.00445557 C19.08593905 0.00577716 20.71094016 0.00833956 22.3359375 0.01226807 C23.10679688 0.0082196 23.87765625 0.00417114 24.671875 0 C30.10601618 0.04797174 30.10601618 0.04797174 32.3359375 2.27789307 C32.58990479 4.32720947 32.58990479 4.32720947 32.59472656 6.87945557 C32.60103088 7.83384521 32.60733521 8.78823486 32.61383057 9.77154541 C32.6097821 10.80489014 32.60573364 11.83823486 32.6015625 12.90289307 C32.60443268 14.48964844 32.60443268 14.48964844 32.60736084 16.10845947 C32.60872352 18.34788246 32.60502132 20.58731332 32.59667969 22.82672119 C32.58598152 26.26374984 32.59657238 29.70025576 32.609375 33.13726807 C32.60805342 35.30914423 32.60549106 37.48102006 32.6015625 39.65289307 C32.60561096 40.68623779 32.60965942 41.71958252 32.61383057 42.78424072 C32.60752625 43.73863037 32.60122192 44.69302002 32.59472656 45.67633057 C32.59313538 46.51857178 32.59154419 47.36081299 32.58990479 48.22857666 C32.3359375 50.27789307 32.3359375 50.27789307 30.3359375 52.27789307 C27.63458427 52.4776304 25.03796539 52.5577088 22.3359375 52.54351807 C21.54445313 52.54543152 20.75296875 52.54734497 19.9375 52.54931641 C18.2630176 52.55067824 16.58852465 52.54698188 14.9140625 52.53863525 C12.34611369 52.52793547 9.77886447 52.53853032 7.2109375 52.55133057 C5.58593595 52.55000897 3.96093484 52.54744658 2.3359375 52.54351807 C1.17964844 52.54959076 1.17964844 52.54959076 0 52.55578613 C-5.43414118 52.50781439 -5.43414118 52.50781439 -7.6640625 50.27789307 C-7.91802979 48.22857666 -7.91802979 48.22857666 -7.92285156 45.67633057 C-7.92915588 44.72194092 -7.93546021 43.76755127 -7.94195557 42.78424072 C-7.9379071 41.750896 -7.93385864 40.71755127 -7.9296875 39.65289307 C-7.93160095 38.59505615 -7.9335144 37.53721924 -7.93548584 36.44732666 C-7.93684852 34.20790367 -7.93314632 31.96847281 -7.92480469 29.72906494 C-7.91410652 26.29203629 -7.92469738 22.85553037 -7.9375 19.41851807 C-7.93617842 17.24664191 -7.93361606 15.07476607 -7.9296875 12.90289307 C-7.93576019 11.35287598 -7.93576019 11.35287598 -7.94195557 9.77154541 C-7.93565125 8.81715576 -7.92934692 7.86276611 -7.92285156 6.87945557 C-7.92126038 6.03721436 -7.91966919 5.19497314 -7.91802979 4.32720947 C-7.32839411 -0.43068703 -4.01148745 0.03541278 0 0 Z M-3.6640625 6.27789307 C-3.86412552 9.2675141 -3.94379173 12.16251656 -3.9296875 15.15289307 C-3.93160095 16.03316162 -3.9335144 16.91343018 -3.93548584 17.82037354 C-3.93684802 19.68316941 -3.93314932 21.54597476 -3.92480469 23.40875244 C-3.91410557 26.26639043 -3.92469882 29.12339972 -3.9375 31.98101807 C-3.93617841 33.78831113 -3.93361603 35.59560379 -3.9296875 37.40289307 C-3.93373596 38.26124756 -3.93778442 39.11960205 -3.94195557 40.00396729 C-4.11899625 44.62014365 -4.11899625 44.62014365 -1.6640625 48.27789307 C1.21681673 48.58987846 1.21681673 48.58987846 4.5859375 48.54351807 C5.83375 48.54609619 7.0815625 48.54867432 8.3671875 48.55133057 C9.676875 48.54359619 10.9865625 48.53586182 12.3359375 48.52789307 C14.30046875 48.53949463 14.30046875 48.53949463 16.3046875 48.55133057 C18.17640625 48.54746338 18.17640625 48.54746338 20.0859375 48.54351807 C21.81070313 48.54013428 21.81070313 48.54013428 23.5703125 48.53668213 C26.47793582 48.56132983 26.47793582 48.56132983 28.3359375 46.27789307 C28.53600052 43.28827203 28.61566673 40.39326957 28.6015625 37.40289307 C28.60347595 36.52262451 28.6053894 35.64235596 28.60736084 34.7354126 C28.60872302 32.87261672 28.60502432 31.00981137 28.59667969 29.14703369 C28.58598057 26.28939571 28.59657382 23.43238641 28.609375 20.57476807 C28.60805341 18.76747501 28.60549103 16.96018234 28.6015625 15.15289307 C28.60561096 14.29453857 28.60965942 13.43618408 28.61383057 12.55181885 C28.79087125 7.93564248 28.79087125 7.93564248 26.3359375 4.27789307 C23.45505827 3.96590768 23.45505827 3.96590768 20.0859375 4.01226807 C18.838125 4.00968994 17.5903125 4.00711182 16.3046875 4.00445557 C14.995 4.01218994 13.6853125 4.01992432 12.3359375 4.02789307 C10.37140625 4.0162915 10.37140625 4.0162915 8.3671875 4.00445557 C6.49546875 4.00832275 6.49546875 4.00832275 4.5859375 4.01226807 C3.43609375 4.01452393 2.28625 4.01677979 1.1015625 4.019104 C-1.80606082 3.9944563 -1.80606082 3.9944563 -3.6640625 6.27789307 Z " fill="#FFFFFF" transform="translate(59.6640625,23.72210693359375)"/>
<path d="M0 0 C1.15628906 0.00607269 1.15628906 0.00607269 2.3359375 0.01226807 C3.12742187 0.01035461 3.91890625 0.00844116 4.734375 0.00646973 C6.4088574 0.00510789 8.08335035 0.00880425 9.7578125 0.01715088 C12.32576131 0.02785067 14.89301053 0.01725582 17.4609375 0.00445557 C19.08593905 0.00577716 20.71094016 0.00833956 22.3359375 0.01226807 C23.10679688 0.0082196 23.87765625 0.00417114 24.671875 0 C30.10601618 0.04797174 30.10601618 0.04797174 32.3359375 2.27789307 C32.58990479 4.32720947 32.58990479 4.32720947 32.59472656 6.87945557 C32.60103088 7.83384521 32.60733521 8.78823486 32.61383057 9.77154541 C32.6097821 10.80489014 32.60573364 11.83823486 32.6015625 12.90289307 C32.60443268 14.48964844 32.60443268 14.48964844 32.60736084 16.10845947 C32.60872352 18.34788246 32.60502132 20.58731332 32.59667969 22.82672119 C32.58598152 26.26374984 32.59657238 29.70025576 32.609375 33.13726807 C32.60805342 35.30914423 32.60549106 37.48102006 32.6015625 39.65289307 C32.60561096 40.68623779 32.60965942 41.71958252 32.61383057 42.78424072 C32.60752625 43.73863037 32.60122192 44.69302002 32.59472656 45.67633057 C32.59313538 46.51857178 32.59154419 47.36081299 32.58990479 48.22857666 C32.3359375 50.27789307 32.3359375 50.27789307 30.3359375 52.27789307 C27.63458427 52.4776304 25.03796539 52.5577088 22.3359375 52.54351807 C21.54445313 52.54543152 20.75296875 52.54734497 19.9375 52.54931641 C18.2630176 52.55067824 16.58852465 52.54698188 14.9140625 52.53863525 C12.34611369 52.52793547 9.77886447 52.53853032 7.2109375 52.55133057 C5.58593595 52.55000897 3.96093484 52.54744658 2.3359375 52.54351807 C1.17964844 52.54959076 1.17964844 52.54959076 0 52.55578613 C-5.43414118 52.50781439 -5.43414118 52.50781439 -7.6640625 50.27789307 C-7.91802979 48.22857666 -7.91802979 48.22857666 -7.92285156 45.67633057 C-7.92915588 44.72194092 -7.93546021 43.76755127 -7.94195557 42.78424072 C-7.9379071 41.750896 -7.93385864 40.71755127 -7.9296875 39.65289307 C-7.93160095 38.59505615 -7.9335144 37.53721924 -7.93548584 36.44732666 C-7.93684852 34.20790367 -7.93314632 31.96847281 -7.92480469 29.72906494 C-7.91410652 26.29203629 -7.92469738 22.85553037 -7.9375 19.41851807 C-7.93617842 17.24664191 -7.93361606 15.07476607 -7.9296875 12.90289307 C-7.93576019 11.35287598 -7.93576019 11.35287598 -7.94195557 9.77154541 C-7.93565125 8.81715576 -7.92934692 7.86276611 -7.92285156 6.87945557 C-7.92126038 6.03721436 -7.91966919 5.19497314 -7.91802979 4.32720947 C-7.32839411 -0.43068703 -4.01148745 0.03541278 0 0 Z M-3.6640625 6.27789307 C-3.86412552 9.2675141 -3.94379173 12.16251656 -3.9296875 15.15289307 C-3.93160095 16.03316162 -3.9335144 16.91343018 -3.93548584 17.82037354 C-3.93684802 19.68316941 -3.93314932 21.54597476 -3.92480469 23.40875244 C-3.91410557 26.26639043 -3.92469882 29.12339972 -3.9375 31.98101807 C-3.93617841 33.78831113 -3.93361603 35.59560379 -3.9296875 37.40289307 C-3.93373596 38.26124756 -3.93778442 39.11960205 -3.94195557 40.00396729 C-4.11899625 44.62014365 -4.11899625 44.62014365 -1.6640625 48.27789307 C1.21681673 48.58987846 1.21681673 48.58987846 4.5859375 48.54351807 C5.83375 48.54609619 7.0815625 48.54867432 8.3671875 48.55133057 C9.676875 48.54359619 10.9865625 48.53586182 12.3359375 48.52789307 C14.30046875 48.53949463 14.30046875 48.53949463 16.3046875 48.55133057 C18.17640625 48.54746338 18.17640625 48.54746338 20.0859375 48.54351807 C21.81070313 48.54013428 21.81070313 48.54013428 23.5703125 48.53668213 C26.47793582 48.56132983 26.47793582 48.56132983 28.3359375 46.27789307 C28.53600052 43.28827203 28.61566673 40.39326957 28.6015625 37.40289307 C28.60347595 36.52262451 28.6053894 35.64235596 28.60736084 34.7354126 C28.60872302 32.87261672 28.60502432 31.00981137 28.59667969 29.14703369 C28.58598057 26.28939571 28.59657382 23.43238641 28.609375 20.57476807 C28.60805341 18.76747501 28.60549103 16.96018234 28.6015625 15.15289307 C28.60561096 14.29453857 28.60965942 13.43618408 28.61383057 12.55181885 C28.79087125 7.93564248 28.79087125 7.93564248 26.3359375 4.27789307 C23.45505827 3.96590768 23.45505827 3.96590768 20.0859375 4.01226807 C18.838125 4.00968994 17.5903125 4.00711182 16.3046875 4.00445557 C14.995 4.01218994 13.6853125 4.01992432 12.3359375 4.02789307 C10.37140625 4.0162915 10.37140625 4.0162915 8.3671875 4.00445557 C6.49546875 4.00832275 6.49546875 4.00832275 4.5859375 4.01226807 C3.43609375 4.01452393 2.28625 4.01677979 1.1015625 4.019104 C-1.80606082 3.9944563 -1.80606082 3.9944563 -3.6640625 6.27789307 Z " fill="#FFFFFF" transform="translate(15.6640625,23.72210693359375)"/>
</svg>
