<?xml version="1.0" encoding="UTF-8"?>
<svg version="1.1" xmlns="http://www.w3.org/2000/svg" width="100" height="100">
<path d="M0 0 C2.61731177 1.51044422 4.59029638 3.46596917 6.6875 5.625 C7.27547363 6.20531982 7.86344727 6.78563965 8.46923828 7.38354492 C9.70239618 8.61127837 10.92558683 9.84909574 12.13916016 11.09619141 C13.99518502 12.99507384 15.89005786 14.84745873 17.79296875 16.69921875 C18.98955249 17.90108931 20.18365199 19.10543936 21.375 20.3125 C21.94049561 20.86180176 22.50599121 21.41110352 23.08862305 21.97705078 C25.87755077 24.90260934 26.94047516 26.76470613 27.953125 30.76757812 C27.43987852 37.13823098 21.71803703 41.25321747 17.375 45.40625 C16.38677005 46.37954436 15.40030249 47.35463112 14.41552734 48.3314209 C11.82874053 50.88777722 9.21884222 53.41919179 6.60327148 55.94604492 C3.93458859 58.53263951 1.2884065 61.14204179 -1.359375 63.75 C-6.54929193 68.85857027 -11.77431827 73.92701676 -17 79 C-1.16 79.495 -1.16 79.495 15 80 C15 81.32 15 82.64 15 84 C7.78612692 84.46962269 0.57567768 84.8216734 -6.6505394 85.03624344 C-10.01167462 85.13948749 -13.35423947 85.28947817 -16.7109375 85.50878906 C-39.9041119 86.9844027 -39.9041119 86.9844027 -49.35351562 79.74023438 C-63.21508766 67.19535374 -63.21508766 67.19535374 -63.90161133 59.79003906 C-62.69405208 54.71390861 -60.43198353 52.42332781 -56.68359375 48.9375 C-55.7096743 47.98411743 -55.7096743 47.98411743 -54.71607971 47.01147461 C-52.64132167 44.98792349 -50.54091862 42.99370229 -48.4375 41 C-46.36530224 39.00059154 -44.29877546 36.99549486 -42.23390198 34.98852539 C-40.95048381 33.74499699 -39.66187719 32.50679095 -38.36705017 31.27514648 C-34.55351489 27.62618441 -31.01780576 23.82732523 -27.57408142 19.82763672 C-24.2084679 15.91988533 -20.64263098 12.21004291 -17.0625 8.5 C-16.30259766 7.67757813 -15.54269531 6.85515625 -14.75976562 6.0078125 C-14.00501953 5.23179688 -13.25027344 4.45578125 -12.47265625 3.65625 C-11.80500244 2.95306641 -11.13734863 2.24988281 -10.44946289 1.52539062 C-6.98393448 -0.63274966 -3.90200582 -0.90544588 0 0 Z M-34 34 C-37.45218982 37.32874811 -40.88774527 40.67347919 -44.30883789 44.03417969 C-45.47528968 45.17546093 -46.64618586 46.31221788 -47.8215332 47.44433594 C-49.50876271 49.07102745 -51.17942172 50.71323723 -52.84765625 52.359375 C-53.37778824 52.86370056 -53.90792023 53.36802612 -54.45411682 53.88763428 C-57.21968232 56.51921326 -57.21968232 56.51921326 -58.04345703 60.08203125 C-55.69985718 64.38978053 -52.17396222 67.7261084 -48.8125 71.25 C-47.70745117 72.51070312 -47.70745117 72.51070312 -46.58007812 73.796875 C-42.08939932 78.47355826 -38.62173253 80.66748155 -32.06640625 81.171875 C-23.60322984 80.61060323 -19.49779235 76.12614228 -14.125 70 C-13.23425781 69.04609375 -12.34351563 68.0921875 -11.42578125 67.109375 C-9.24848631 64.76819765 -7.11061413 62.40118279 -5 60 C-6.05767578 58.94425781 -6.05767578 58.94425781 -7.13671875 57.8671875 C-9.04209187 55.96248458 -10.93969647 54.05046497 -12.83203125 52.1328125 C-22.467644 41.82276503 -22.467644 41.82276503 -34 34 Z " fill="#FFFFFF" transform="translate(69,8)"/>
</svg>
