<?xml version="1.0" encoding="UTF-8"?>
<svg version="1.1" xmlns="http://www.w3.org/2000/svg" width="96" height="96">
<path d="M0 0 C5.30076899 3.91247235 9.25292385 8.35153447 10.625 14.9375 C11.13700121 20.46711309 10.4031927 25.13171402 7.625 29.9375 C3.66776721 34.36373816 -0.63744999 37.52221667 -6.625 38.1875 C-13.48491978 38.52213023 -18.7528048 37.21867428 -23.91015625 32.546875 C-27.76043868 28.28125598 -29.16635864 24.1908267 -29.6875 18.5625 C-29.1054977 11.81127331 -27.48248735 7.59110536 -22.375 3 C-16.02401289 -2.28046087 -7.73710812 -2.43575626 0 0 Z " fill="#FFFFFF" transform="translate(57.375,35.0625)"/>
<path d="M0 0 C8.14918589 6.06991659 14.21848052 14.09684782 17.46484375 23.8359375 C17.50438609 26.16893575 17.50886107 28.50301939 17.46484375 30.8359375 C15.48484375 30.8359375 13.50484375 30.8359375 11.46484375 30.8359375 C11.04525391 29.69318359 11.04525391 29.69318359 10.6171875 28.52734375 C5.65986457 15.75944773 -0.90042173 8.02151118 -12.98828125 1.515625 C-23.28496154 -3.00101697 -36.01097605 -2.83384165 -46.53515625 0.8359375 C-58.74537491 6.34130057 -66.69229512 15.01925213 -71.47265625 27.5234375 C-71.82328125 28.6165625 -72.17390625 29.7096875 -72.53515625 30.8359375 C-74.51515625 30.8359375 -76.49515625 30.8359375 -78.53515625 30.8359375 C-79.66930733 22.51882961 -75.3097852 15.62147777 -70.51953125 9.0859375 C-52.415747 -12.27392306 -22.88013874 -15.55980741 0 0 Z " fill="#FFFFFF" transform="translate(78.53515625,27.1640625)"/>
</svg>
