<?xml version="1.0" encoding="UTF-8"?>
<svg version="1.1" xmlns="http://www.w3.org/2000/svg" width="100" height="100">
<path d="M0 0 C1.4540625 1.051875 1.4540625 1.051875 2.9375 2.125 C12.16149834 10.06586996 16.73358802 21.11893896 17.875 33 C18.43266812 45.44552019 15.37678179 55.9407521 8 66 C6.948125 67.4540625 6.948125 67.4540625 5.875 68.9375 C-2.18221329 78.26819381 -13.38278431 82.55322237 -25.375 83.9375 C-38.11710193 84.56316009 -50.28344387 80.86072917 -60.1875 72.8125 C-70.60168266 63.07155743 -75.40226384 51.55008757 -76.03515625 37.42578125 C-75.92153377 26.35390137 -72.53229292 16.90767217 -66 8 C-64.948125 6.5459375 -64.948125 6.5459375 -63.875 5.0625 C-56.6373241 -3.34467841 -45.35184855 -9.08160104 -34.27734375 -9.96484375 C-21.39403716 -10.16372841 -10.43645558 -7.95158521 0 0 Z M-38.1796875 0 C-41.36277059 3.49729301 -43.15069112 7.68778667 -45 12 C-41.78817851 13.90608098 -39.46117397 14.22266247 -35.75 14.125 C-34.1825 14.08375 -32.615 14.0425 -31 14 C-31 8.06 -31 2.12 -31 -4 C-34.196331 -4 -35.8381423 -2.03783013 -38.1796875 0 Z M-27 -4 C-27 1.94 -27 7.88 -27 14 C-24.3703125 14.061875 -24.3703125 14.061875 -21.6875 14.125 C-20.20830078 14.15980469 -20.20830078 14.15980469 -18.69921875 14.1953125 C-15.77593473 14.20682639 -15.77593473 14.20682639 -13 12 C-15.84597264 5.36376886 -18.7108538 -0.10294719 -25 -4 C-25.66 -4 -26.32 -4 -27 -4 Z M-50.5 1.25 C-51.4796875 1.85328125 -52.459375 2.4565625 -53.46875 3.078125 C-55.95465165 4.96556884 -56.92986547 6.12082854 -58 9 C-54.62902617 10.49821059 -52.79557881 11 -49 11 C-47.02 6.71 -45.04 2.42 -43 -2 C-46.07245869 -2 -47.92310116 -0.36395243 -50.5 1.25 Z M-15 -2 C-13.02 2.29 -11.04 6.58 -9 11 C-2.68516016 10.47434165 -2.68516016 10.47434165 0 9 C-1.50528107 4.95007711 -3.88730314 3.4746607 -7.5 1.25 C-8.4796875 0.63640625 -9.459375 0.0228125 -10.46875 -0.609375 C-12.81079974 -2.16050111 -12.81079974 -2.16050111 -15 -2 Z M-64.28125 14.2578125 C-68.47979831 20.69020383 -69.70559209 27.50716724 -71 35 C-68.18743719 35.02684312 -65.37512759 35.04676188 -62.5625 35.0625 C-61.35883789 35.07506836 -61.35883789 35.07506836 -60.13085938 35.08789062 C-58.08704779 35.0965143 -56.04316098 35.0522815 -54 35 C-51.85531351 32.85531351 -52.2604212 28.41555106 -51.9375 25.4375 C-51.84662109 24.63119141 -51.75574219 23.82488281 -51.66210938 22.99414062 C-51.43752551 20.99652623 -51.21826764 18.9983144 -51 17 C-52.43429001 16.32645501 -53.87257057 15.66140299 -55.3125 15 C-56.51326172 14.443125 -56.51326172 14.443125 -57.73828125 13.875 C-61.23698513 12.5152004 -61.23698513 12.5152004 -64.28125 14.2578125 Z M-2.6875 15 C-3.89986328 15.556875 -3.89986328 15.556875 -5.13671875 16.125 C-6.05904297 16.558125 -6.05904297 16.558125 -7 17 C-6.69272975 19.81316358 -6.37944848 22.62542519 -6.0625 25.4375 C-5.93198242 26.64116211 -5.93198242 26.64116211 -5.79882812 27.86914062 C-5.69451606 31.75576664 -5.69451606 31.75576664 -4 35 C-1.13732433 35.07325168 1.700719 35.09238205 4.5625 35.0625 C5.77196289 35.05573242 5.77196289 35.05573242 7.00585938 35.04882812 C9.00393756 35.03700518 11.00197783 35.01906914 13 35 C11.24319945 23.03583727 11.24319945 23.03583727 5 13 C1.76344816 13 0.21247361 13.6550847 -2.6875 15 Z M-46 18 C-47.61312338 22.83937013 -48.24163445 25.09298756 -48.125 29.875 C-48.08375 31.56625 -48.0425 33.2575 -48 35 C-42.39 35 -36.78 35 -31 35 C-31 29.72 -31 24.44 -31 19 C-35.95 18.67 -40.9 18.34 -46 18 Z M-27 19 C-27 24.28 -27 29.56 -27 35 C-21.39 35 -15.78 35 -10 35 C-9.688896 26.2963212 -9.688896 26.2963212 -12 18 C-17.05247573 18 -21.96968881 18.52092274 -27 19 Z M-71 39 C-69.55297765 47.37625946 -68.09832862 54.11036674 -63 61 C-58.65883413 60.3422476 -55.0052117 58.75965131 -51 57 C-51.30727025 54.18683642 -51.62055152 51.37457481 -51.9375 48.5625 C-52.02451172 47.76005859 -52.11152344 46.95761719 -52.20117188 46.13085938 C-52.30548394 42.24423336 -52.30548394 42.24423336 -54 39 C-56.86267567 38.92674832 -59.700719 38.90761795 -62.5625 38.9375 C-63.36880859 38.94201172 -64.17511719 38.94652344 -65.00585938 38.95117188 C-67.00393756 38.96299482 -69.00197783 38.98093086 -71 39 Z M-48 39 C-48.04125 40.69125 -48.0825 42.3825 -48.125 44.125 C-48.14820312 45.07632813 -48.17140625 46.02765625 -48.1953125 47.0078125 C-48.08937885 50.57774091 -48.08937885 50.57774091 -46 56 C-41.05 55.67 -36.1 55.34 -31 55 C-31 49.72 -31 44.44 -31 39 C-36.61 39 -42.22 39 -48 39 Z M-27 39 C-27 44.28 -27 49.56 -27 55 C-22.05 55.33 -17.1 55.66 -12 56 C-10.38687662 51.16062987 -9.75836555 48.90701244 -9.875 44.125 C-9.91625 42.43375 -9.9575 40.7425 -10 39 C-15.61 39 -21.22 39 -27 39 Z M-5 40 C-5.400383 42.85528607 -5.7518227 45.69736487 -6.0625 48.5625 C-6.15337891 49.36880859 -6.24425781 50.17511719 -6.33789062 51.00585938 C-6.56247449 53.00347377 -6.78173236 55.0016856 -7 57 C-5.5903653 57.70180531 -4.17192359 58.38593958 -2.75 59.0625 C-1.56664063 59.63677734 -1.56664063 59.63677734 -0.359375 60.22265625 C2.34670182 61.11422792 3.4352134 61.22873668 6 60 C10.58999451 53.83774218 12.0487953 46.46766672 13 39 C10.18743719 38.97315688 7.37512759 38.95323812 4.5625 38.9375 C3.76005859 38.92912109 2.95761719 38.92074219 2.13085938 38.91210938 C-1.74436907 38.5030304 -1.74436907 38.5030304 -5 40 Z M-45 62 C-42.15402736 68.63623114 -39.2891462 74.10294719 -33 78 C-32.34 78 -31.68 78 -31 78 C-31 72.06 -31 66.12 -31 60 C-33.6296875 59.938125 -33.6296875 59.938125 -36.3125 59.875 C-37.29863281 59.85179688 -38.28476562 59.82859375 -39.30078125 59.8046875 C-42.22406527 59.79317361 -42.22406527 59.79317361 -45 62 Z M-27 60 C-27 65.94 -27 71.88 -27 78 C-20.10905365 75.24362146 -17.60958944 71.65854504 -14.6875 65.125 C-14.11514863 63.75407142 -13.5490955 62.38040769 -13 61 C-16.15506142 60.06380187 -18.96586502 59.8942877 -22.25 59.9375 C-24.60125 59.9684375 -24.60125 59.9684375 -27 60 Z M-58 65 C-56.49260007 69.04665101 -54.09765041 70.5639685 -50.5 72.8125 C-49.5203125 73.43769531 -48.540625 74.06289062 -47.53125 74.70703125 C-46.6959375 75.13371094 -45.860625 75.56039062 -45 76 C-44.34 75.67 -43.68 75.34 -43 75 C-45.97 69.06 -45.97 69.06 -49 63 C-52.79557881 63 -54.62902617 63.50178941 -58 65 Z M-9 63 C-10.98 67.29 -12.96 71.58 -15 76 C-10.12913301 74.37637767 -7.9071985 73.50538332 -4.125 70.5 C-3.34382813 69.8915625 -2.56265625 69.283125 -1.7578125 68.65625 C-1.17773438 68.1096875 -0.59765625 67.563125 0 67 C0 66.34 0 65.68 0 65 C-3.37097383 63.50178941 -5.20442119 63 -9 63 Z " fill="#FFFFFF" transform="translate(79,13)"/>
</svg>
