<?xml version="1.0" encoding="UTF-8"?>
<svg version="1.1" xmlns="http://www.w3.org/2000/svg" width="96" height="96">
<path d="M0 0 C11.09643843 7.99240959 18.30312031 20.65545469 22.58203125 33.4921875 C23.51459882 46.48152153 22.80713188 57.26172888 14.39453125 67.8671875 C7.40856538 75.18872379 -1.62497784 79.65212258 -11.73754883 79.92260742 C-27.39530088 79.97069329 -40.67385508 73.45592843 -52.22265625 62.83203125 C-61.65857094 52.49163769 -63.15358326 41.1262757 -62.6015625 27.68457031 C-61.96607855 20.09594552 -58.49906859 13.0690044 -53.41796875 7.4921875 C-50.60546875 7.0546875 -50.60546875 7.0546875 -48.41796875 7.4921875 C-47.60546875 9.4921875 -47.60546875 9.4921875 -47.41796875 12.4921875 C-48.48856189 14.57770294 -49.72887314 16.42746096 -51.09375 18.33203125 C-54.27759751 23.5257412 -54.73486614 28.58409527 -54.66796875 34.5546875 C-54.67570312 35.24884766 -54.6834375 35.94300781 -54.69140625 36.65820312 C-54.67601219 40.71068821 -54.20854688 43.84708202 -52.41796875 47.4921875 C-52.39669922 46.18507813 -52.39669922 46.18507813 -52.375 44.8515625 C-51.9197647 33.48298376 -49.47155709 23.65806611 -41.44140625 15.2421875 C-33.91637586 8.73405311 -25.94923184 5.42791937 -16.04296875 4.8671875 C-14.17511719 4.75503906 -14.17511719 4.75503906 -12.26953125 4.640625 C-10.85800781 4.56714844 -10.85800781 4.56714844 -9.41796875 4.4921875 C-13.732657 2.36855188 -17.70043762 2.18996391 -22.41796875 2.2421875 C-23.11664063 2.23445312 -23.8153125 2.22671875 -24.53515625 2.21875 C-28.65110008 2.23428186 -31.67685161 2.83991673 -35.41796875 4.4921875 C-38.23046875 4.1171875 -38.23046875 4.1171875 -40.41796875 3.4921875 C-41.54296875 -0.2578125 -41.54296875 -0.2578125 -40.41796875 -2.5078125 C-27.93935221 -8.40679486 -11.60084225 -7.2341278 0 0 Z " fill="#8E8E8E" transform="translate(70.41796875,13.5078125)"/>
<path d="M0 0 C0.721875 0.144375 1.44375 0.28875 2.1875 0.4375 C3 2.4375 3 2.4375 3.1875 5.4375 C2.11690686 7.52301544 0.87659561 9.37277346 -0.48828125 11.27734375 C-3.59464857 16.3446627 -4.20070544 21.40832922 -4.1875 27.25 C-4.18661377 27.95487549 -4.18572754 28.65975098 -4.18481445 29.38598633 C-4.05269246 35.2147794 -2.8496767 39.51705603 0.1875 44.4375 C0.765 45.406875 1.3425 46.37625 1.9375 47.375 C2.35 48.055625 2.7625 48.73625 3.1875 49.4375 C3.1875 50.0975 3.1875 50.7575 3.1875 51.4375 C3.76757812 51.7159375 4.34765625 51.994375 4.9453125 52.28125 C7.76476103 53.73518165 10.35173148 55.46557272 12.9921875 57.21875 C22.61592636 62.56146623 33.90704624 61.03662149 44.1875 58.4375 C44.8475 59.7575 45.5075 61.0775 46.1875 62.4375 C39.90026984 67.97026254 32.00394011 67.87969347 24.04296875 67.74609375 C12.95921977 66.85894464 4.79622071 62.32443107 -2.78125 54.37109375 C-11.36500942 44.20515833 -12.93400004 33.41720642 -12.04443359 20.51708984 C-11.29660389 13.81181257 -7.644591 1.1891586 0 0 Z " fill="#FDFDFD" transform="translate(19.8125,20.5625)"/>
<path d="M0 0 C8.26696726 5.95443203 14.99635985 13.85854286 16.70703125 24.0546875 C18.48771539 36.01277772 18.15325154 46.54634872 10.9140625 56.87109375 C10.47449219 57.40605469 10.03492188 57.94101563 9.58203125 58.4921875 C7.93203125 58.1621875 6.28203125 57.8321875 4.58203125 57.4921875 C4.99263269 54.61797744 5.50526202 52.61902362 7.01953125 50.1171875 C11.21179689 43.07418123 11.35445939 35.51208958 10.58203125 27.4921875 C9.65893432 23.89460433 8.32747779 20.76345485 6.58203125 17.4921875 C6.09089844 16.52152344 6.09089844 16.52152344 5.58984375 15.53125 C2.14257935 9.76903432 -3.48920158 7.2436125 -9.41796875 4.4921875 C-10.19140625 4.11191406 -10.96484375 3.73164063 -11.76171875 3.33984375 C-15.31858349 2.20478544 -18.72532275 2.2013095 -22.41796875 2.2421875 C-23.11664063 2.23445312 -23.8153125 2.22671875 -24.53515625 2.21875 C-28.65110008 2.23428186 -31.67685161 2.83991673 -35.41796875 4.4921875 C-38.23046875 4.1171875 -38.23046875 4.1171875 -40.41796875 3.4921875 C-41.54296875 -0.2578125 -41.54296875 -0.2578125 -40.41796875 -2.5078125 C-27.93935221 -8.40679486 -11.60084225 -7.2341278 0 0 Z " fill="#FDFDFD" transform="translate(70.41796875,13.5078125)"/>
<path d="M0 0 C1.65 0.33 3.3 0.66 5 1 C5 9.58 5 18.16 5 27 C3.35 27.33 1.7 27.66 0 28 C-1.77449594 26.22550406 -1.13030072 23.64982739 -1.1328125 21.25 C-1.13410156 20.0846875 -1.13539062 18.919375 -1.13671875 17.71875 C-1.13285156 16.4915625 -1.12898438 15.264375 -1.125 14 C-1.12886719 12.7728125 -1.13273437 11.545625 -1.13671875 10.28125 C-1.13542969 9.1159375 -1.13414063 7.950625 -1.1328125 6.75 C-1.13168457 5.67234375 -1.13055664 4.5946875 -1.12939453 3.484375 C-1 1 -1 1 0 0 Z " fill="#FCFCFC" transform="translate(46,42)"/>
<path d="M0 0 C2.625 0.375 2.625 0.375 5 1 C5.625 3.375 5.625 3.375 6 6 C5.34 6.66 4.68 7.32 4 8 C1.375 7.625 1.375 7.625 -1 7 C-1.625 4.625 -1.625 4.625 -2 2 C-1.34 1.34 -0.68 0.68 0 0 Z " fill="#F7F7F7" transform="translate(46,28)"/>
</svg>
