<?xml version="1.0" encoding="UTF-8"?>
<svg version="1.1" xmlns="http://www.w3.org/2000/svg" width="48" height="48">
<path d="M0 0 C11.64459016 -0.76721311 11.64459016 -0.76721311 16.3125 1.875 C18.72210371 6.3372291 18.95065287 10.04360469 18 15 C16.3125 18.125 16.3125 18.125 13 20 C8.63367347 20.39645822 4.37055706 20.28795764 0 20 C0 18.68 0 17.36 0 16 C0.78246094 15.86722656 1.56492187 15.73445313 2.37109375 15.59765625 C3.38300781 15.42105469 4.39492188 15.24445312 5.4375 15.0625 C6.44683594 14.88847656 7.45617188 14.71445312 8.49609375 14.53515625 C10.9287438 14.25248903 10.9287438 14.25248903 12 13 C12.04080783 11.00041636 12.04254356 8.99954746 12 7 C8.17482487 4.60926555 4.40334476 4.44033448 0 4 C0 2.68 0 1.36 0 0 Z " fill="#FFFFFF" transform="translate(28,14)"/>
<path d="M0 0 C0 1.32 0 2.64 0 4 C-0.78246094 4.13277344 -1.56492187 4.26554687 -2.37109375 4.40234375 C-3.88896484 4.66724609 -3.88896484 4.66724609 -5.4375 4.9375 C-6.44683594 5.11152344 -7.45617187 5.28554688 -8.49609375 5.46484375 C-10.9287438 5.74751097 -10.9287438 5.74751097 -12 7 C-12.04080783 8.99958364 -12.04254356 11.00045254 -12 13 C-8.17482487 15.39073445 -4.40334476 15.55966552 0 16 C0 17.32 0 18.64 0 20 C-11.64459016 20.76721311 -11.64459016 20.76721311 -16.3125 18.125 C-18.72210371 13.6627709 -18.95065287 9.95639531 -18 5 C-14.21335183 -2.01231143 -6.99288485 -0.4607318 0 0 Z " fill="#FFFFFF" transform="translate(20,14)"/>
<path d="M0 0 C6.6 0 13.2 0 20 0 C20 1.32 20 2.64 20 4 C13.4 4 6.8 4 0 4 C0 2.68 0 1.36 0 0 Z " fill="#FFFFFF" transform="translate(14,22)"/>
</svg>
