<?xml version="1.0" encoding="UTF-8"?>
<svg version="1.1" xmlns="http://www.w3.org/2000/svg" width="48" height="48">
<path d="M0 0 C3.91641711 -0.11618764 7.83239101 -0.18724654 11.75 -0.25 C13.41675781 -0.30027344 13.41675781 -0.30027344 15.1171875 -0.3515625 C16.18710937 -0.36445313 17.25703125 -0.37734375 18.359375 -0.390625 C19.34389648 -0.41157227 20.32841797 -0.43251953 21.34277344 -0.45410156 C24.72815393 0.12443645 25.74221076 1.49439009 28 4 C31.13350717 5.26784124 31.13350717 5.26784124 34 6 C34.08121924 7.60332791 34.13929134 9.20784026 34.1875 10.8125 C34.23970703 12.15248047 34.23970703 12.15248047 34.29296875 13.51953125 C34 16 34 16 32.8762207 17.63012695 C30.1513873 19.61959217 28.03453027 19.38848738 24.6875 19.3984375 C23.44742187 19.40230469 22.20734375 19.40617187 20.9296875 19.41015625 C18.98449219 19.39275391 18.98449219 19.39275391 17 19.375 C15.70320313 19.38660156 14.40640625 19.39820312 13.0703125 19.41015625 C11.83023437 19.40628906 10.59015625 19.40242188 9.3125 19.3984375 C8.17425781 19.39505371 7.03601563 19.39166992 5.86328125 19.38818359 C3 19 3 19 1.1237793 17.7121582 C-0.83669334 14.72523781 -0.30486346 11.25817082 -0.1875 7.8125 C-0.17396484 7.06291016 -0.16042969 6.31332031 -0.14648438 5.54101562 C-0.11118539 3.69370233 -0.05737917 1.84675934 0 0 Z " fill="#FFFFFF" transform="translate(7,20)"/>
<path d="M0 0 C2.5 1.625 2.5 1.625 4 4 C4.63656938 7.73984509 4.25584708 9.50962644 2.5 12.875 C-0.54168979 15.46043632 -2.20007233 15.69010681 -6.09375 15.4140625 C-8 15 -8 15 -10.5 13.4375 C-12.58392818 10.05111671 -12.55802097 7.90614682 -12 4 C-9.10910635 -0.69770218 -5.08522732 -1.02121368 0 0 Z M-8 7 C-8 7.33 -8 7.66 -8 8 C-5.36 8 -2.72 8 0 8 C0 7.67 0 7.34 0 7 C-2.64 7 -5.28 7 -8 7 Z " fill="#FFFFFF" transform="translate(43,9)"/>
<path d="M0 0 C0.99 0.66 1.98 1.32 3 2 C5.50896686 2.45601261 5.50896686 2.45601261 8.1875 2.625 C9.08855469 2.69976562 9.98960938 2.77453125 10.91796875 2.8515625 C11.60503906 2.90054687 12.29210937 2.94953125 13 3 C13 4.98 13 6.96 13 9 C5.41 9 -2.18 9 -10 9 C-10 3 -10 3 -8.9375 1.125 C-5.92517484 -0.62409203 -3.40497373 -0.30401551 0 0 Z " fill="#FFFFFF" transform="translate(17,9)"/>
</svg>
