<?xml version="1.0" encoding="UTF-8"?>
<svg version="1.1" xmlns="http://www.w3.org/2000/svg" width="64" height="64">
<path d="M0 0 C1.09570312 0.00902344 2.19140625 0.01804687 3.3203125 0.02734375 C4.16335937 0.03894531 5.00640625 0.05054688 5.875 0.0625 C5.92398438 0.95453125 5.97296875 1.8465625 6.0234375 2.765625 C6.09820312 3.93609375 6.17296875 5.1065625 6.25 6.3125 C6.31960937 7.47265625 6.38921875 8.6328125 6.4609375 9.828125 C6.8411675 13.82213151 6.8411675 13.82213151 8.875 17.0625 C11.53982841 17.52959352 13.82570966 17.75822473 16.5 17.8125 C17.55960938 17.85697266 17.55960938 17.85697266 18.640625 17.90234375 C20.38480047 17.97305357 22.12990827 18.02004035 23.875 18.0625 C23.99122939 21.81223906 24.0622595 25.56151464 24.125 29.3125 C24.17527344 30.90771484 24.17527344 30.90771484 24.2265625 32.53515625 C24.23945312 33.55996094 24.25234375 34.58476563 24.265625 35.640625 C24.28657227 36.58325195 24.30751953 37.52587891 24.32910156 38.49707031 C23.74131417 41.81775307 22.44294931 42.95537283 19.875 45.0625 C16.80966836 46.59516582 13.60745728 46.16526471 10.25 46.125 C9.54359375 46.12048828 8.8371875 46.11597656 8.109375 46.11132812 C6.36454725 46.09953875 4.619763 46.08160324 2.875 46.0625 C3.03484375 45.49402344 3.1946875 44.92554688 3.359375 44.33984375 C4.44259565 39.55561921 4.46015097 34.85696298 2.9375 30.1875 C-0.15971031 26.99643483 -3.83142637 25.97776786 -8.125 25.0625 C-9.445 25.0625 -10.765 25.0625 -12.125 25.0625 C-12.24138036 21.81280231 -12.31230581 18.5636417 -12.375 15.3125 C-12.40851562 14.39210938 -12.44203125 13.47171875 -12.4765625 12.5234375 C-12.57578327 5.67720446 -12.57578327 5.67720446 -10.234375 2.484375 C-6.58016149 0.02116441 -4.40607925 -0.04687318 0 0 Z " fill="#FFFFFF" transform="translate(26.125,8.9375)"/>
<path d="M0 0 C3.81504836 1.69557705 5.47668134 3.1501583 7 7 C7.3086746 11.49556849 6.79035623 14.98735608 4 18.5625 C-0.10348648 20.52875394 -3.53360227 20.93049953 -8 20 C-11.4153137 17.58081946 -12.69248754 15.98403987 -13.9375 12 C-14.03452247 7.34292124 -13.00433879 5.06172958 -9.8125 1.6875 C-6.21852832 -0.46888301 -4.13327601 -0.5166595 0 0 Z M-4 5 C-4.33 6.32 -4.66 7.64 -5 9 C-6.32 9.33 -7.64 9.66 -9 10 C-8.360625 10.2475 -7.72125 10.495 -7.0625 10.75 C-5 12 -5 12 -4.25 14.125 C-4.1675 14.74375 -4.085 15.3625 -4 16 C-3.34 15.67 -2.68 15.34 -2 15 C-2 14.01 -2 13.02 -2 12 C-0.68 11.67 0.64 11.34 2 11 C2 10.34 2 9.68 2 9 C0.68 9 -0.64 9 -2 9 C-2 7.68 -2 6.36 -2 5 C-2.66 5 -3.32 5 -4 5 Z " fill="#FFFFFF" transform="translate(22,36)"/>
<path d="M0 0 C4.04005835 2.02002917 6.65441932 4.38973293 9.75 7.5625 C10.25660156 8.06974609 10.76320313 8.57699219 11.28515625 9.09960938 C15 12.85951188 15 12.85951188 15 14 C10.05 14 5.1 14 0 14 C0 9.38 0 4.76 0 0 Z " fill="#FFFFFF" transform="translate(35,10)"/>
</svg>
