<?xml version="1.0" encoding="UTF-8"?>
<svg version="1.1" xmlns="http://www.w3.org/2000/svg" width="100" height="100">
<path d="M0 0 C1.00828354 0.17756836 2.01656708 0.35513672 3.05540466 0.53808594 C6.24529119 1.10154318 9.43316339 1.67558945 12.62109375 2.25 C14.79609912 2.63612055 16.97122832 3.02154422 19.14648438 3.40625 C24.45197938 4.34611343 29.75586572 5.29465556 35.05859375 6.25 C35.63061523 8.63916016 35.63061523 8.63916016 36.05859375 11.25 C34.90625 13.0234375 34.90625 13.0234375 33.12109375 14.625 C32.47914062 15.21410156 31.8371875 15.80320312 31.17578125 16.41015625 C30.12777344 17.32087891 30.12777344 17.32087891 29.05859375 18.25 C28.33929688 18.88808594 27.62 19.52617187 26.87890625 20.18359375 C25.51254848 21.38728988 24.13941381 22.58336273 22.7578125 23.76953125 C21.4812993 24.88171172 20.25576361 26.05283014 19.05859375 27.25 C24.33859375 28.24 29.61859375 29.23 35.05859375 30.25 C36.05859375 35.25 36.05859375 35.25 34.90625 37.0234375 C34.31714844 37.55195312 33.72804688 38.08046875 33.12109375 38.625 C32.47914062 39.21410156 31.8371875 39.80320313 31.17578125 40.41015625 C30.12777344 41.32087891 30.12777344 41.32087891 29.05859375 42.25 C28.33929688 42.88808594 27.62 43.52617188 26.87890625 44.18359375 C25.51254848 45.38728988 24.13941381 46.58336273 22.7578125 47.76953125 C21.4812993 48.88171172 20.25576361 50.05283014 19.05859375 51.25 C24.33859375 52.24 29.61859375 53.23 35.05859375 54.25 C36.05859375 59.25 36.05859375 59.25 34.90625 61.0234375 C34.31714844 61.55195312 33.72804688 62.08046875 33.12109375 62.625 C32.47269531 63.22054687 31.82429688 63.81609375 31.15625 64.4296875 C30.46402344 65.03039062 29.77179688 65.63109375 29.05859375 66.25 C28.06666016 67.12011719 28.06666016 67.12011719 27.0546875 68.0078125 C25.71600955 69.17620852 24.37350331 70.34023177 23.02734375 71.5 C21.12836304 73.18798286 19.33853387 74.93769734 17.55859375 76.75 C14.52411009 79.83965609 11.31983915 82.66440192 8.0390625 85.48828125 C6.07115467 87.23882648 4.21708634 89.05947283 2.37109375 90.9375 C1.79617187 91.50855469 1.22125 92.07960938 0.62890625 92.66796875 C-0.69403735 94.00078507 -1.97872053 95.37142084 -3.25390625 96.75 C-9.97684388 100.50233728 -20.18072936 96.37691864 -27.19921875 94.52734375 C-28.22828339 94.26240616 -29.25734802 93.99746857 -30.31759644 93.72450256 C-33.56903029 92.8857305 -36.81770828 92.03679971 -40.06640625 91.1875 C-42.28498126 90.61325581 -44.50372979 90.03968156 -46.72265625 89.46679688 C-52.13093586 88.06893453 -57.5369967 86.66274645 -62.94140625 85.25 C-63.43640625 82.775 -63.43640625 82.775 -63.94140625 80.25 C-61.50551657 78.28965683 -59.06741849 76.33207961 -56.62890625 74.375 C-55.93861328 73.81941406 -55.24832031 73.26382813 -54.53710938 72.69140625 C-53.87001953 72.15644531 -53.20292969 71.62148437 -52.515625 71.0703125 C-51.59656372 70.33192139 -51.59656372 70.33192139 -50.65893555 69.57861328 C-49.1366886 68.40106276 -47.54272179 67.31754369 -45.94140625 66.25 C-46.48667969 66.06824219 -47.03195313 65.88648437 -47.59375 65.69921875 C-53.04296875 63.8828125 -58.4921875 62.06640625 -63.94140625 60.25 C-63.60553531 57.30619004 -63.33933938 55.66859292 -61.26733398 53.48901367 C-60.56036377 52.97056885 -59.85339355 52.45212402 -59.125 51.91796875 C-57.9793457 51.06235352 -57.9793457 51.06235352 -56.81054688 50.18945312 C-56.00810547 49.61130859 -55.20566406 49.03316406 -54.37890625 48.4375 C-53.16944336 47.5412793 -53.16944336 47.5412793 -51.93554688 46.62695312 C-49.94616085 45.15551375 -47.94832755 43.69738136 -45.94140625 42.25 C-46.82783813 41.95452271 -46.82783813 41.95452271 -47.73217773 41.65307617 C-53.13525391 39.85205078 -58.53833008 38.05102539 -63.94140625 36.25 C-63.59699175 33.44505737 -63.35949543 31.70967532 -61.42944336 29.58764648 C-60.45890015 28.86170288 -60.45890015 28.86170288 -59.46875 28.12109375 C-58.74163818 27.56687744 -58.01452637 27.01266113 -57.26538086 26.44165039 C-56.47784424 25.86278076 -55.69030762 25.28391113 -54.87890625 24.6875 C-54.07267822 24.0783374 -53.2664502 23.4691748 -52.43579102 22.84155273 C-49.94686351 20.96505195 -47.44498606 19.10688771 -44.94140625 17.25 C-42.76255951 15.61492902 -40.58646349 13.97625485 -38.41064453 12.3371582 C-37.06624723 11.32829481 -35.71830217 10.3241403 -34.36669922 9.32495117 C-30.1384287 6.19620187 -26.09534933 2.93056284 -22.2265625 -0.640625 C-15.76616718 -3.77695367 -6.7754279 -1.23536677 0 0 Z M5.49609375 38.5 C3.85881878 40.24259675 2.21601479 41.97804278 0.55419922 43.69726562 C-0.72358853 45.02386211 -1.97413204 46.37660996 -3.21875 47.734375 C-10.53975263 51.80976814 -21.40913544 46.98371416 -28.96875 44.890625 C-29.81308594 44.66632812 -30.65742187 44.44203125 -31.52734375 44.2109375 C-32.28063965 44.00259277 -33.03393555 43.79424805 -33.81005859 43.57958984 C-37.08663319 43.07290305 -39.08125838 43.70645557 -41.86425781 45.46508789 C-42.51362305 45.96258545 -43.16298828 46.46008301 -43.83203125 46.97265625 C-44.54101562 47.51083984 -45.25 48.04902344 -45.98046875 48.60351562 C-46.71007813 49.16748047 -47.4396875 49.73144531 -48.19140625 50.3125 C-49.30902344 51.16424805 -49.30902344 51.16424805 -50.44921875 52.03320312 C-52.28441286 53.43312683 -54.11485312 54.83883221 -55.94140625 56.25 C-53.7473517 58.44405455 -52.76320972 58.74149759 -49.83056641 59.50268555 C-48.9827359 59.72599045 -48.1349054 59.94929535 -47.26138306 60.17936707 C-45.88483047 60.52950615 -45.88483047 60.52950615 -44.48046875 60.88671875 C-43.53835541 61.13041702 -42.59624207 61.3741153 -41.62557983 61.62519836 C-39.63085013 62.13883729 -37.63518288 62.64884674 -35.63867188 63.15551758 C-32.58267482 63.93335917 -29.53157886 64.7286243 -26.48046875 65.52539062 C-24.54324171 66.02189956 -22.60574987 66.51737671 -20.66796875 67.01171875 C-19.75431549 67.2512175 -18.84066223 67.49071625 -17.89932251 67.73747253 C-16.61812027 68.05824516 -16.61812027 68.05824516 -15.31103516 68.38549805 C-14.56205963 68.57710007 -13.81308411 68.76870209 -13.04141235 68.96611023 C-10.68214478 69.28504832 -9.17606294 69.0430913 -6.94140625 68.25 C-5.01156568 66.64607578 -5.01156568 66.64607578 -3.19140625 64.625 C-0.51487353 61.83922105 2.18648538 59.20043649 5.12109375 56.6875 C8.32821095 53.93050451 11.30708428 51.02728426 14.265625 48.0078125 C16.18970512 46.12145944 18.19729395 44.37462201 20.24609375 42.625 C23.22642568 40.06133583 25.73553741 37.44420247 28.05859375 34.25 C26.51857668 33.90912666 24.97646969 33.57769047 23.43359375 33.25 C22.57507813 33.064375 21.7165625 32.87875 20.83203125 32.6875 C13.02833015 31.45649363 10.65636801 32.82309051 5.49609375 38.5 Z M5.49609375 62.5 C3.85881878 64.24259675 2.21601479 65.97804278 0.55419922 67.69726562 C-0.72358853 69.02386211 -1.97413204 70.37660996 -3.21875 71.734375 C-10.53975263 75.80976814 -21.40913544 70.98371416 -28.96875 68.890625 C-29.81308594 68.66632813 -30.65742187 68.44203125 -31.52734375 68.2109375 C-32.28063965 68.00259277 -33.03393555 67.79424805 -33.81005859 67.57958984 C-37.08663319 67.07290305 -39.08125838 67.70645557 -41.86425781 69.46508789 C-42.51362305 69.96258545 -43.16298828 70.46008301 -43.83203125 70.97265625 C-44.54101562 71.51083984 -45.25 72.04902344 -45.98046875 72.60351562 C-46.71007813 73.16748047 -47.4396875 73.73144531 -48.19140625 74.3125 C-49.30902344 75.16424805 -49.30902344 75.16424805 -50.44921875 76.03320312 C-52.28441286 77.43312683 -54.11485312 78.83883221 -55.94140625 80.25 C-53.7473517 82.44405455 -52.76320972 82.74149759 -49.83056641 83.50268555 C-48.9827359 83.72599045 -48.1349054 83.94929535 -47.26138306 84.17936707 C-45.88483047 84.52950615 -45.88483047 84.52950615 -44.48046875 84.88671875 C-43.53835541 85.13041702 -42.59624207 85.3741153 -41.62557983 85.62519836 C-39.63085013 86.13883729 -37.63518288 86.64884674 -35.63867188 87.15551758 C-32.58267482 87.93335917 -29.53157886 88.7286243 -26.48046875 89.52539062 C-24.54324171 90.02189956 -22.60574987 90.51737671 -20.66796875 91.01171875 C-19.75431549 91.2512175 -18.84066223 91.49071625 -17.89932251 91.73747253 C-16.61812027 92.05824516 -16.61812027 92.05824516 -15.31103516 92.38549805 C-14.56205963 92.57710007 -13.81308411 92.76870209 -13.04141235 92.96611023 C-10.68214478 93.28504832 -9.17606294 93.0430913 -6.94140625 92.25 C-5.01156568 90.64607578 -5.01156568 90.64607578 -3.19140625 88.625 C-0.51487353 85.83922105 2.18648538 83.20043649 5.12109375 80.6875 C8.32821095 77.93050451 11.30708428 75.02728426 14.265625 72.0078125 C16.18970512 70.12145944 18.19729395 68.37462201 20.24609375 66.625 C23.22642568 64.06133583 25.73553741 61.44420247 28.05859375 58.25 C26.51857668 57.90912666 24.97646969 57.57769047 23.43359375 57.25 C22.57507813 57.064375 21.7165625 56.87875 20.83203125 56.6875 C13.02833015 55.45649363 10.65636801 56.82309051 5.49609375 62.5 Z " fill="#FFFFFF" transform="translate(63.94140625,1.75)"/>
</svg>
