<?xml version="1.0" encoding="UTF-8"?>
<svg version="1.1" xmlns="http://www.w3.org/2000/svg" width="30" height="30">
<path d="M0 0 C1.98 0 3.96 0 6 0 C6 0.66 6 1.32 6 2 C9.3 2 12.6 2 16 2 C16 6.29 16 10.58 16 15 C7.42 15 -1.16 15 -10 15 C-10 10.71 -10 6.42 -10 2 C-6.7 2 -3.4 2 0 2 C0 1.34 0 0.68 0 0 Z " fill="#FFFFFF" transform="translate(12,3)"/>
<path d="M0 0 C8.58 0 17.16 0 26 0 C26 1.98 26 3.96 26 6 C17.42 6 8.84 6 0 6 C0 4.02 0 2.04 0 0 Z " fill="#FFFFFF" transform="translate(2,19)"/>
</svg>
