<?xml version="1.0" encoding="UTF-8"?>
<svg version="1.1" xmlns="http://www.w3.org/2000/svg" width="100" height="100">
<path d="M0 0 C3.82346064 0.65048441 5.81171321 2.86167284 8.42895508 5.53198242 C9.21740059 6.31325249 9.21740059 6.31325249 10.02177429 7.11030579 C11.12793202 8.21306638 12.22782176 9.32214535 13.32177734 10.43701172 C14.99760435 12.13960524 16.69841461 13.81389303 18.40356445 15.48706055 C19.4761348 16.56293502 20.54715303 17.64035955 21.61645508 18.71948242 C22.12574051 19.2186467 22.63502594 19.71781097 23.15974426 20.23210144 C25.15199479 22.29197083 26.5647182 23.88829177 27.19137573 26.72154236 C26.43100493 30.87679475 23.70675467 33.14590444 20.80322266 36.00805664 C20.17727203 36.64437515 19.55132141 37.28069366 18.90640259 37.93629456 C16.83273629 40.0370765 14.74117708 42.1189185 12.64770508 44.19995117 C11.20170492 45.65185745 9.75637569 47.10443221 8.31169128 48.55764771 C5.28080479 51.60042263 2.2407916 54.63370457 -0.80566406 57.66088867 C-4.71421208 61.54653504 -8.59736145 65.45649105 -12.47382641 69.37411308 C-15.45287471 72.37869826 -18.44582421 75.36912022 -21.44310951 78.35550308 C-22.88101174 79.79191537 -24.31431369 81.23294769 -25.7429409 82.67858505 C-27.73953484 84.69507449 -29.75422681 86.69152075 -31.77490234 88.68383789 C-32.36472397 89.28737595 -32.95454559 89.890914 -33.5622406 90.51274109 C-37.6204794 94.45758684 -37.6204794 94.45758684 -41.04356384 94.45846558 C-44.3063744 93.01740501 -46.60050307 90.77715722 -49.08276367 88.28588867 C-49.61076569 87.76645691 -50.1387677 87.24702515 -50.68276978 86.71185303 C-51.79204395 85.61403375 -52.89615618 84.51097706 -53.99536133 83.40307617 C-55.68253792 81.70955864 -57.39466883 80.04446421 -59.11010742 78.37963867 C-60.18594507 77.30834532 -61.26022001 76.23547984 -62.33276367 75.16088867 C-62.84721039 74.66486145 -63.3616571 74.16883423 -63.89169312 73.65777588 C-65.29907227 72.21264648 -65.29907227 72.21264648 -67.30932617 69.45776367 C-67.19706204 66.40271133 -66.77340223 65.05039266 -64.89916992 62.65698242 C-63.36922201 61.25724284 -61.83927409 59.85750326 -60.30932617 58.45776367 C-56.36793539 60.12527516 -53.52004497 62.68487016 -50.30932617 65.45776367 C-52.61932617 62.81776367 -54.92932617 60.17776367 -57.30932617 57.45776367 C-55.69194893 54.22300919 -54.83303394 52.75204346 -52.30932617 50.45776367 C-48.43611525 52.03407044 -46.06197455 54.53524036 -43.18432617 57.52026367 C-40.06826852 60.9222985 -40.06826852 60.9222985 -36.30932617 63.45776367 C-40.476368 58.60032438 -44.72777613 53.92756859 -49.30932617 49.45776367 C-48.01632923 46.57338588 -46.64991254 44.58556946 -44.30932617 42.45776367 C-40.36793539 44.12527516 -37.52004497 46.68487016 -34.30932617 49.45776367 C-36.61932617 46.81776367 -38.92932617 44.17776367 -41.30932617 41.45776367 C-39.69194893 38.22300919 -38.83303394 36.75204346 -36.30932617 34.45776367 C-32.43611525 36.03407044 -30.06197455 38.53524036 -27.18432617 41.52026367 C-24.06826852 44.9222985 -24.06826852 44.9222985 -20.30932617 47.45776367 C-24.476368 42.60032438 -28.72777613 37.92756859 -33.30932617 33.45776367 C-32.01632923 30.57338588 -30.64991254 28.58556946 -28.30932617 26.45776367 C-24.36793539 28.12527516 -21.52004497 30.68487016 -18.30932617 33.45776367 C-20.61932617 30.81776367 -22.92932617 28.17776367 -25.30932617 25.45776367 C-23.69194893 22.22300919 -22.83303394 20.75204346 -20.30932617 18.45776367 C-16.43611525 20.03407044 -14.06197455 22.53524036 -11.18432617 25.52026367 C-8.06826852 28.9222985 -8.06826852 28.9222985 -4.30932617 31.45776367 C-8.476368 26.60032438 -12.72777613 21.92756859 -17.30932617 17.45776367 C-16.01632923 14.57338588 -14.64991254 12.58556946 -12.30932617 10.45776367 C-8.36793539 12.12527516 -5.52004497 14.68487016 -2.30932617 17.45776367 C-4.61932617 14.81776367 -6.92932617 12.17776367 -9.30932617 9.45776367 C-7.17465277 5.18841686 -5.00737969 0.9925824 0 0 Z " fill="#FFFFFF" transform="translate(70.309326171875,2.542236328125)"/>
</svg>
