<?xml version="1.0" encoding="UTF-8"?>
<svg version="1.1" xmlns="http://www.w3.org/2000/svg" width="96" height="96">
<path d="M0 0 C3.19543403 1.2793749 5.4228438 2.8456876 7 6 C8.69715656 6.31711576 10.40966707 6.55369487 12.125 6.75 C17.86580364 7.69809111 21.28276103 9.52368521 25 14 C26.76040815 17.04070499 27.0493529 19.57266952 27.3125 23 C27.7486907 27.36190701 29.66811211 29.16789529 33 32 C35.08851148 36.17702296 34.44475888 41.45159916 34 46 C32.73794781 49.19999014 31.14962054 51.42518973 28 53 C27.68288424 54.69715656 27.44630513 56.40966707 27.25 58.125 C26.30190889 63.86580364 24.47631479 67.28276103 20 71 C16.95929501 72.76040815 14.42733048 73.0493529 11 73.3125 C6.63809299 73.7486907 4.83210471 75.66811211 2 79 C-2.17702296 81.08851148 -7.45159916 80.44475888 -12 80 C-15.19999014 78.73794781 -17.42518973 77.14962054 -19 74 C-20.69715656 73.68288424 -22.40966707 73.44630513 -24.125 73.25 C-29.86580364 72.30190889 -33.28276103 70.47631479 -37 66 C-38.76040815 62.95929501 -39.0493529 60.42733048 -39.3125 57 C-39.7486907 52.63809299 -41.66811211 50.83210471 -45 48 C-47.10342165 43.7931567 -46.53532311 38.56770261 -46 34 C-44.65931072 30.99345426 -43.31564382 29.42591258 -41 27 C-40.34 27 -39.68 27 -39 27 C-39.0928125 25.205625 -39.0928125 25.205625 -39.1875 23.375 C-39.16200973 18.55733844 -38.04546268 15.06781747 -34.5703125 11.5546875 C-30.72839702 8.20973621 -27.84822668 6.8549471 -22.8125 6.9375 C-20.9253125 6.9684375 -20.9253125 6.9684375 -19 7 C-18.6596875 6.1028125 -18.6596875 6.1028125 -18.3125 5.1875 C-14.34717932 -1.42136779 -6.79525849 -0.8539987 0 0 Z " fill="#4CAF50" transform="translate(54,8)"/>
<path d="M0 0 C1.90429688 0.81958008 1.90429688 0.81958008 3.90429688 2.81958008 C3.7450669 7.026904 0.84884804 9.21693551 -2.00585938 12.02270508 C-2.49275742 12.50535828 -2.97965546 12.98801147 -3.48130798 13.48529053 C-5.03335762 15.02058858 -6.59552449 16.54510933 -8.15820312 18.06958008 C-9.21422669 19.11055227 -10.26957351 20.15221148 -11.32421875 21.19458008 C-13.90691727 23.7442564 -16.49879194 26.28437204 -19.09570312 28.81958008 C-23.02420676 26.99606413 -25.85212382 24.46489253 -28.90820312 21.44458008 C-29.42318359 20.9624707 -29.93816406 20.48036133 -30.46875 19.98364258 C-31.92773438 18.54614258 -31.92773438 18.54614258 -34.09570312 15.81958008 C-34.02514608 12.72592513 -33.29959151 12.02346846 -31.09570312 9.81958008 C-27.73138036 10.14096863 -26.10752909 11.46603871 -23.84570312 13.88208008 C-23.32492188 14.42993164 -22.80414063 14.9777832 -22.26757812 15.54223633 C-21.88085938 15.96375977 -21.49414062 16.3852832 -21.09570312 16.81958008 C-17.92961522 15.43072401 -15.91506507 13.82930263 -13.56445312 11.30786133 C-12.91863281 10.63303711 -12.2728125 9.95821289 -11.60742188 9.26293945 C-10.26041503 7.83615842 -8.91929783 6.40379515 -7.58398438 4.96606445 C-6.93816406 4.29510742 -6.29234375 3.62415039 -5.62695312 2.93286133 C-4.75393555 2.00147339 -4.75393555 2.00147339 -3.86328125 1.05126953 C-2.09570312 -0.18041992 -2.09570312 -0.18041992 0 0 Z " fill="#FBFDFB" transform="translate(64.095703125,36.180419921875)"/>
</svg>
