<?xml version="1.0" encoding="UTF-8"?>
<svg version="1.1" xmlns="http://www.w3.org/2000/svg" width="90" height="90">
<path d="M0 0 C0 3.96 0 7.92 0 12 C0.83660156 11.97905273 1.67320313 11.95810547 2.53515625 11.93652344 C5.67362309 11.86788034 8.81170416 11.81797437 11.95068359 11.78027344 C13.96347627 11.75053955 15.97592134 11.69968271 17.98828125 11.6484375 C27.07772514 11.55708631 32.65373951 12.26019446 39.6875 18.3125 C47.66342685 27.58182039 48.85378887 34.95209036 48 47 C46.49641983 52.55670934 43.29847175 56.22573212 39 60 C38.195625 60.721875 37.39125 61.44375 36.5625 62.1875 C30.72627922 66.3155586 24.71193424 66.39253627 17.8125 66.4375 C16.45995117 66.48680664 16.45995117 66.48680664 15.08007812 66.53710938 C12.61817717 66.55727387 10.40832115 66.51296371 8 66 C5.83984375 63.67578125 5.83984375 63.67578125 5 61 C6.2 55.8 6.2 55.8 8 54 C11.70531941 53.61773518 15.40759036 53.2788488 19.12304688 53.01367188 C24.40700914 52.52545623 27.83860576 51.56051704 32 48 C34.93472105 43.77603733 34.6008936 38.93981361 34 34 C32.58574486 30.61808553 31.52931348 28.73731843 28.16992188 27.11767578 C22.06285546 25.01924314 16.36831008 24.46913073 9.9375 24.3125 C8.97650391 24.27833984 8.01550781 24.24417969 7.02539062 24.20898438 C4.68397732 24.12744262 2.34201155 24.06202588 0 24 C0 27.96 0 31.92 0 36 C-6.41069287 30.72898586 -12.18590512 24.90871848 -18 19 C-16.60982588 15.86421688 -14.98666305 13.73988136 -12.55859375 11.328125 C-11.89279297 10.66425781 -11.22699219 10.00039063 -10.54101562 9.31640625 C-9.84685547 8.63449219 -9.15269531 7.95257812 -8.4375 7.25 C-7.73947266 6.55261719 -7.04144531 5.85523438 -6.32226562 5.13671875 C-1.14031158 0 -1.14031158 0 0 0 Z " fill="#FFFFFF" transform="translate(30,9)"/>
</svg>
